<svg xmlns="http://www.w3.org/2000/svg" version="1.1" xmlns:xlink="http://www.w3.org/1999/xlink" width="512" height="512" x="0" y="0" viewBox="0 0 100 100" style="enable-background:new 0 0 512 512" xml:space="preserve" class=""><g><path fill="#f4f4f4" d="M0 11.023h100v8.818H0z" opacity="1" data-original="#f4f4f4" class=""></path><path fill="#353b48" d="M0 19.842h100v69.135H0z" opacity="1" data-original="#353b48" class=""></path><circle cx="6.083" cy="15.433" r="2.083" fill="#e84118" opacity="1" data-original="#e84118"></circle><circle cx="13.25" cy="15.433" r="2.083" fill="#00a8ff" opacity="1" data-original="#00a8ff"></circle><circle cx="20.417" cy="15.433" r="2.083" fill="#44bd32" opacity="1" data-original="#44bd32"></circle><path fill="#ff4f34" d="M24.251 29.409a2 2 0 0 1-2 2H11.167a2 2 0 0 1 0-4h11.084a2 2 0 0 1 2 2z" opacity="1" data-original="#ff4f34" class=""></path><path fill="#517dff" d="M40.918 29.409a2 2 0 0 1-2 2h-8.667a2 2 0 0 1 0-4h8.667a2 2 0 0 1 2 2z" opacity="1" data-original="#517dff"></path><path fill="#ff5e96" d="M32.667 39.409a2 2 0 0 1-2 2h-19.5a2 2 0 0 1 0-4h19.5a2 2 0 0 1 2 2z" opacity="1" data-original="#ff5e96"></path><path fill="#ff4f34" d="M59.668 39.409a2 2 0 0 1-2 2H38.667a2 2 0 0 1 0-4h19.001c1.103 0 2 .896 2 2zM19.167 49.409a2 2 0 0 1-2 2h-6a2 2 0 0 1 0-4h6a2 2 0 0 1 2 2z" opacity="1" data-original="#ff4f34" class=""></path><path fill="#27ff10" d="M39.335 49.409a2 2 0 0 1-2 2H25.167a2 2 0 0 1 0-4h12.167a2 2 0 0 1 2.001 2z" opacity="1" data-original="#27ff10"></path><path fill="#ff5e96" d="M65.5 49.409a2 2 0 0 1-2 2H45.335a2 2 0 0 1 0-4H63.5a2 2 0 0 1 2 2z" opacity="1" data-original="#ff5e96"></path><path fill="#517dff" d="M31.167 59.409a2 2 0 0 1-2 2h-18a2 2 0 0 1 0-4h18a2 2 0 0 1 2 2z" opacity="1" data-original="#517dff"></path><path fill="#ff4f34" d="M81.502 59.409a2 2 0 0 1-2 2H37.167a2 2 0 0 1 0-4h42.334a2 2 0 0 1 2.001 2z" opacity="1" data-original="#ff4f34" class=""></path><path fill="#ff5e96" d="M23.167 69.409a2 2 0 0 1-2 2h-10a2 2 0 0 1 0-4h10a2 2 0 0 1 2 2z" opacity="1" data-original="#ff5e96"></path><path fill="#27ff10" d="M39.335 69.409a2 2 0 0 1-2 2h-8.168a2 2 0 0 1 0-4h8.168a2 2 0 0 1 2 2z" opacity="1" data-original="#27ff10"></path><path fill="#ff4f34" d="M29.5 79.409a2 2 0 0 1-2 2H11.167a2 2 0 0 1 0-4H27.5a2 2 0 0 1 2 2z" opacity="1" data-original="#ff4f34" class=""></path></g></svg>